M48
; DRILL file {KiCad 7.0.1} date Sun Apr 16 18:21:40 2023
; FORMAT={-:-/ absolute / inch / decimal}
; #@! TF.CreationDate,2023-04-16T18:21:40+08:00
; #@! TF.GenerationSoftware,Kicad,Pcbnew,7.0.1
; #@! TF.FileFunction,Plated,1,2,PTH
FMAT,2
INCH
; #@! TA.AperFunction,Plated,PTH,ViaDrill
T1C0.0039
; #@! TA.AperFunction,Plated,PTH,ViaDrill
T2C0.0118
; #@! TA.AperFunction,Plated,PTH,ComponentDrill
T3C0.0236
; #@! TA.AperFunction,Plated,PTH,ComponentDrill
T4C0.0394
%
G90
G05
T1
X7.9211Y-3.8234
T2
X7.3Y-3.7
X7.3Y-4.0
X7.6Y-3.5
X7.6246Y-3.5862
X7.6311Y-3.495
X7.6776Y-3.5125
X7.7Y-3.4
X7.9Y-3.6
X8.0Y-3.6
X8.0Y-3.9
X8.1Y-3.4
X8.1Y-4.0
X8.1419Y-3.4432
X8.2Y-3.8
X8.2004Y-3.8996
X8.4Y-3.6
X8.5Y-3.3
X8.5Y-3.5
X8.5Y-3.8
X8.5Y-4.1
X8.5026Y-3.5974
T4
X7.2Y-3.2
X7.2Y-3.3
X7.2Y-3.4
X7.2Y-3.5
X7.2Y-4.3
X7.3Y-4.3
X7.4Y-3.0
X7.4Y-3.2
X7.4Y-4.3
X7.5Y-3.0
X7.5Y-3.2
X7.5Y-4.3
X7.6Y-3.0
X7.6Y-3.2
X8.2Y-3.0
X8.2Y-3.1
X8.2Y-3.2
X8.3Y-4.3
X8.4Y-3.0
X8.4Y-3.1
X8.4Y-3.2
X8.4Y-4.3
X8.5Y-4.3
X8.6Y-3.0
X8.6Y-3.1
X8.6Y-3.2
X8.6Y-3.3
X8.6Y-3.5
X8.6Y-3.6
X8.6Y-3.7
X8.6Y-3.8
X8.6Y-4.3
T3
G00X7.7299Y-3.0118
M15
G01X7.7299Y-2.9882
M16
G05
G00X7.7299Y-3.1862
M15
G01X7.7299Y-3.1429
M16
G05
G00X8.0701Y-3.0118
M15
G01X8.0701Y-2.9882
M16
G05
G00X8.0701Y-3.1862
M15
G01X8.0701Y-3.1429
M16
G05
T0
M30
